<svg xmlns="http://www.w3.org/2000/svg" xmlns:xlink="http://www.w3.org/1999/xlink" width="500" zoomAndPan="magnify" viewBox="0 0 375 374.999991" height="500" preserveAspectRatio="xMidYMid meet" version="1.0"><defs><g/></defs><path fill="#1991a9" d="M 223.046875 295.445312 C 221.910156 295.234375 218.96875 293.800781 217.601562 292.789062 C 215.992188 291.601562 214.210938 288.824219 213.449219 286.316406 C 212.960938 284.714844 212.871094 283.824219 212.984375 281.675781 C 213.105469 279.28125 213.664062 277.171875 218.515625 260.640625 C 222.765625 246.152344 223.832031 242.199219 223.546875 241.933594 C 223.351562 241.75 215.046875 236.546875 205.097656 230.375 C 195.148438 224.203125 186.238281 218.554688 185.296875 217.820312 C 181.488281 214.851562 178.042969 209.460938 176.6875 204.335938 C 175.816406 201.027344 175.804688 195.4375 176.664062 192.03125 C 177.003906 190.679688 180.15625 180.863281 183.664062 170.21875 C 187.175781 159.574219 190.046875 150.816406 190.046875 150.753906 C 190.046875 150.457031 184.753906 150.695312 182.953125 151.070312 C 181.839844 151.304688 179.695312 152.101562 178.191406 152.84375 C 175.554688 154.148438 175.210938 154.4375 168.488281 161.0625 C 163.667969 165.8125 161.078125 168.152344 160.082031 168.660156 C 154.507812 171.480469 148.140625 170.652344 144.0625 166.574219 C 140.09375 162.605469 139.226562 156.363281 141.882812 150.929688 C 142.828125 148.992188 143.585938 148.113281 148.910156 142.796875 C 155.222656 136.492188 158.613281 133.671875 162.9375 131.144531 C 174.847656 124.171875 189.03125 122.480469 202.492188 126.425781 C 207.246094 127.824219 223.5 133.035156 225.359375 133.765625 C 228.65625 135.054688 234.386719 138.144531 237.207031 140.15625 C 242.921875 144.230469 248.460938 150.316406 252.136719 156.566406 C 253.902344 159.5625 254.554688 160.941406 256.628906 166.03125 C 258.296875 170.117188 259.710938 172.316406 261.664062 173.871094 C 264.867188 176.417969 267.199219 176.980469 274.542969 176.980469 C 277.539062 176.980469 280.691406 177.113281 281.546875 177.277344 C 288.070312 178.511719 292.316406 184.179688 291.847656 191.019531 C 291.464844 196.59375 288.691406 200.449219 283.570312 202.519531 C 282.011719 203.152344 281.625 203.175781 273.410156 203.171875 C 265.660156 203.164062 264.597656 203.105469 261.921875 202.515625 C 253.820312 200.738281 248.003906 197.617188 242.425781 192.042969 C 238.101562 187.71875 234.90625 182.71875 232.078125 175.847656 C 231.722656 174.988281 231.375 174.34375 231.304688 174.414062 C 230.980469 174.738281 218.707031 207.546875 218.808594 207.8125 C 218.871094 207.976562 224.246094 211.390625 230.753906 215.394531 C 243.1875 223.042969 245.300781 224.605469 247.398438 227.695312 C 251.164062 233.238281 251.992188 238.085938 250.277344 244.570312 C 247.753906 254.113281 238.855469 285.90625 238.324219 287.265625 C 236.703125 291.425781 233.695312 294.070312 229.277344 295.214844 C 227.652344 295.632812 224.652344 295.746094 223.046875 295.445312 Z M 129.488281 255.449219 C 125.847656 254.273438 123.371094 252.125 121.792969 248.765625 C 120.886719 246.839844 120.753906 246.265625 120.636719 243.65625 C 120.523438 241.238281 120.609375 240.367188 121.105469 238.730469 C 122.542969 234 126.300781 230.761719 131.285156 229.964844 C 132.367188 229.792969 138.460938 229.664062 145.613281 229.660156 L 158.058594 229.652344 L 160.222656 224.953125 C 161.410156 222.371094 163.148438 218.628906 164.082031 216.640625 L 165.78125 213.027344 L 167.273438 215.929688 C 169.265625 219.792969 171.085938 222.308594 174.25 225.5625 C 177.058594 228.453125 179.695312 230.570312 182.953125 232.550781 C 184.066406 233.230469 185.015625 233.8125 185.058594 233.851562 C 185.222656 233.996094 180.054688 244.941406 178.945312 246.800781 C 176.621094 250.695312 173.011719 253.636719 168.792969 255.066406 L 166.453125 255.859375 L 148.796875 255.921875 C 132.335938 255.980469 131.027344 255.945312 129.488281 255.449219 Z M 85.324219 189.640625 C 82.96875 188.886719 80.917969 186.015625 80.917969 183.476562 C 80.917969 181.164062 82.375 178.761719 84.375 177.777344 L 85.695312 177.125 L 113.167969 177.046875 C 143.316406 176.957031 142.835938 176.933594 144.710938 178.667969 C 146.558594 180.382812 147.230469 183.6875 146.214844 186.09375 C 145.550781 187.671875 144.714844 188.511719 143.007812 189.316406 L 141.5625 190 L 113.917969 189.972656 C 95.433594 189.957031 85.957031 189.847656 85.324219 189.640625 Z M 85.324219 163.300781 C 84.800781 163.132812 83.800781 162.492188 83.101562 161.878906 C 79.378906 158.601562 80.78125 152.25 85.515625 150.933594 C 86.152344 150.757812 92.097656 150.640625 100.621094 150.640625 C 116.246094 150.640625 116.777344 150.691406 118.46875 152.441406 C 121.625 155.699219 120.71875 161.101562 116.699219 162.96875 L 115.21875 163.660156 L 100.746094 163.632812 C 91.484375 163.617188 85.929688 163.496094 85.324219 163.300781 Z M 85.421875 136.890625 C 83.949219 136.367188 82.960938 135.625 82.148438 134.429688 C 79.648438 130.757812 81.402344 125.703125 85.566406 124.582031 C 86.277344 124.390625 96.339844 124.316406 114.40625 124.367188 L 142.15625 124.441406 L 143.59375 125.183594 C 147.300781 127.089844 147.789062 133.210938 144.4375 135.765625 C 142.351562 137.355469 142.984375 137.324219 113.652344 137.3125 C 91.152344 137.300781 86.371094 137.230469 85.421875 136.890625 Z M 230.425781 123.972656 C 225.804688 123.316406 222.160156 121.621094 219.0625 118.6875 C 216.332031 116.101562 214.933594 113.964844 213.898438 110.800781 C 213.132812 108.46875 213.058594 107.875 213.070312 104.324219 C 213.082031 100.871094 213.171875 100.144531 213.863281 98.078125 C 215.449219 93.324219 218.875 89.398438 223.417969 87.128906 C 226.90625 85.382812 229.171875 84.8125 232.597656 84.8125 C 238.460938 84.8125 244.066406 87.429688 247.878906 91.945312 C 249.789062 94.203125 250.941406 96.515625 251.738281 99.6875 C 252.253906 101.742188 252.328125 102.664062 252.191406 105.332031 C 252.019531 108.707031 251.507812 110.757812 250.101562 113.734375 C 248.894531 116.285156 244.734375 120.34375 241.859375 121.773438 C 238.210938 123.589844 233.75 124.449219 230.425781 123.972656 Z M 230.425781 123.972656 " fill-opacity="1" fill-rule="nonzero"/><g fill="#FFFFFF" fill-opacity="1"><g transform="translate(39.331781, 162.29597)"><g><path d="M -12.203125 -18.890625 L -2.6875 -16.625 C -1.363281 -16.3125 -0.273438 -15.785156 0.578125 -15.046875 C 1.441406 -14.316406 2.015625 -13.382812 2.296875 -12.25 C 2.585938 -11.113281 2.554688 -9.785156 2.203125 -8.265625 C 1.679688 -6.085938 0.726562 -4.5625 -0.65625 -3.6875 C -2.039062 -2.8125 -3.753906 -2.613281 -5.796875 -3.09375 L -15.40625 -5.390625 L -14.390625 -9.671875 L -5.109375 -7.453125 C -3.992188 -7.191406 -3.132812 -7.207031 -2.53125 -7.5 C -1.9375 -7.800781 -1.539062 -8.359375 -1.34375 -9.171875 C -1.207031 -9.753906 -1.203125 -10.253906 -1.328125 -10.671875 C -1.460938 -11.085938 -1.742188 -11.441406 -2.171875 -11.734375 C -2.609375 -12.023438 -3.203125 -12.257812 -3.953125 -12.4375 L -13.203125 -14.640625 Z M -12.203125 -18.890625 "/></g></g></g><g fill="#FFFFFF" fill-opacity="1"><g transform="translate(42.993595, 146.449277)"><g><path d="M 5.859375 -16.171875 L 3.90625 -10.765625 L -8.859375 -9.09375 L -8.90625 -8.984375 C -8.550781 -8.910156 -8.140625 -8.804688 -7.671875 -8.671875 C -7.210938 -8.535156 -6.738281 -8.390625 -6.25 -8.234375 C -5.769531 -8.078125 -5.335938 -7.925781 -4.953125 -7.78125 L 1.921875 -5.296875 L 0.59375 -1.640625 L -14.671875 -7.171875 L -12.71875 -12.5625 L -0.09375 -14.28125 L -0.078125 -14.328125 C -0.410156 -14.441406 -0.800781 -14.566406 -1.25 -14.703125 C -1.707031 -14.835938 -2.164062 -14.976562 -2.625 -15.125 C -3.082031 -15.269531 -3.484375 -15.40625 -3.828125 -15.53125 L -10.734375 -18.03125 L -9.40625 -21.703125 Z M 5.859375 -16.171875 "/></g></g></g><g fill="#FFFFFF" fill-opacity="1"><g transform="translate(49.397349, 129.369559)"><g><path d="M 0.734375 -1.59375 L -14 -8.390625 L -12.15625 -12.390625 L 2.578125 -5.59375 Z M 0.734375 -1.59375 "/></g></g></g><g fill="#FFFFFF" fill-opacity="1"><g transform="translate(52.268169, 122.693506)"><g><path d="M 0.203125 -17.6875 C 1.847656 -16.769531 3.039062 -15.695312 3.78125 -14.46875 C 4.53125 -13.25 4.867188 -11.925781 4.796875 -10.5 C 4.722656 -9.082031 4.265625 -7.617188 3.421875 -6.109375 L 0.859375 -1.53125 L -13.3125 -9.453125 L -10.578125 -14.359375 C -9.722656 -15.878906 -8.738281 -17.019531 -7.625 -17.78125 C -6.519531 -18.550781 -5.304688 -18.929688 -3.984375 -18.921875 C -2.660156 -18.921875 -1.265625 -18.507812 0.203125 -17.6875 Z M -1.875 -13.640625 C -2.738281 -14.117188 -3.519531 -14.398438 -4.21875 -14.484375 C -4.914062 -14.566406 -5.53125 -14.457031 -6.0625 -14.15625 C -6.601562 -13.851562 -7.066406 -13.359375 -7.453125 -12.671875 L -8.078125 -11.546875 L -0.140625 -7.109375 L 0.328125 -7.953125 C 0.972656 -9.117188 1.109375 -10.164062 0.734375 -11.09375 C 0.367188 -12.019531 -0.5 -12.867188 -1.875 -13.640625 Z M -1.875 -13.640625 "/></g></g></g><g fill="#FFFFFF" fill-opacity="1"><g transform="translate(59.944389, 108.868354)"><g><path d="M 6.75 -9.578125 L 3.796875 -10.65625 L 0.765625 -6.359375 L 2.78125 -3.9375 L 0 0 L -10.265625 -13.71875 L -6.890625 -18.5 L 9.515625 -13.484375 Z M 0.34375 -12 L -2.234375 -12.953125 C -2.515625 -13.066406 -2.914062 -13.21875 -3.4375 -13.40625 C -3.957031 -13.59375 -4.488281 -13.796875 -5.03125 -14.015625 C -5.582031 -14.242188 -6.035156 -14.4375 -6.390625 -14.59375 C -6.117188 -14.320312 -5.796875 -13.976562 -5.421875 -13.5625 C -5.046875 -13.15625 -4.675781 -12.742188 -4.3125 -12.328125 C -3.945312 -11.921875 -3.648438 -11.570312 -3.421875 -11.28125 L -1.65625 -9.171875 Z M 0.34375 -12 "/></g></g></g><g fill="#FFFFFF" fill-opacity="1"><g transform="translate(68.914784, 96.066386)"><g><path d="M 3.859375 -17.25 C 5.273438 -16.007812 6.222656 -14.710938 6.703125 -13.359375 C 7.191406 -12.015625 7.25 -10.65625 6.875 -9.28125 C 6.5 -7.90625 5.742188 -6.566406 4.609375 -5.265625 L 1.15625 -1.3125 L -11.0625 -12 L -7.359375 -16.234375 C -6.210938 -17.546875 -5.015625 -18.457031 -3.765625 -18.96875 C -2.515625 -19.488281 -1.25 -19.609375 0.03125 -19.328125 C 1.320312 -19.046875 2.597656 -18.351562 3.859375 -17.25 Z M 0.984375 -13.734375 C 0.242188 -14.378906 -0.453125 -14.816406 -1.109375 -15.046875 C -1.773438 -15.273438 -2.398438 -15.296875 -2.984375 -15.109375 C -3.578125 -14.929688 -4.132812 -14.539062 -4.65625 -13.9375 L -5.5 -12.984375 L 1.34375 -6.984375 L 1.984375 -7.703125 C 2.859375 -8.710938 3.207031 -9.707031 3.03125 -10.6875 C 2.863281 -11.675781 2.179688 -12.691406 0.984375 -13.734375 Z M 0.984375 -13.734375 "/></g></g></g><g fill="#FFFFFF" fill-opacity="1"><g transform="translate(79.62844, 84.076909)"><g/></g></g><g fill="#FFFFFF" fill-opacity="1"><g transform="translate(83.300485, 80.186888)"><g><path d="M -9.296875 -13.40625 L -5.015625 -17.125 C -3.242188 -18.65625 -1.753906 -19.484375 -0.546875 -19.609375 C 0.660156 -19.742188 1.691406 -19.316406 2.546875 -18.328125 C 3.015625 -17.796875 3.3125 -17.257812 3.4375 -16.71875 C 3.570312 -16.175781 3.585938 -15.664062 3.484375 -15.1875 C 3.378906 -14.71875 3.207031 -14.304688 2.96875 -13.953125 L 3.046875 -13.875 C 3.441406 -14.101562 3.890625 -14.265625 4.390625 -14.359375 C 4.890625 -14.453125 5.414062 -14.394531 5.96875 -14.1875 C 6.53125 -13.988281 7.09375 -13.566406 7.65625 -12.921875 C 8.289062 -12.179688 8.65625 -11.375 8.75 -10.5 C 8.84375 -9.632812 8.664062 -8.753906 8.21875 -7.859375 C 7.769531 -6.972656 7.0625 -6.113281 6.09375 -5.28125 L 1.328125 -1.140625 Z M -1.90625 -11.578125 L -0.921875 -12.4375 C -0.367188 -12.914062 -0.078125 -13.363281 -0.046875 -13.78125 C -0.0234375 -14.207031 -0.15625 -14.582031 -0.4375 -14.90625 C -0.71875 -15.238281 -1.0625 -15.378906 -1.46875 -15.328125 C -1.882812 -15.285156 -2.351562 -15.035156 -2.875 -14.578125 L -3.8125 -13.765625 Z M 0.1875 -9.15625 L 2.421875 -6.578125 L 3.59375 -7.59375 C 4.164062 -8.09375 4.457031 -8.566406 4.46875 -9.015625 C 4.488281 -9.460938 4.332031 -9.875 4 -10.25 C 3.820312 -10.457031 3.597656 -10.613281 3.328125 -10.71875 C 3.054688 -10.832031 2.75 -10.847656 2.40625 -10.765625 C 2.070312 -10.691406 1.695312 -10.472656 1.28125 -10.109375 Z M 0.1875 -9.15625 "/></g></g></g><g fill="#FFFFFF" fill-opacity="1"><g transform="translate(94.196979, 70.647432)"><g><path d="M 9.578125 -6.75 L 7.171875 -8.765625 L 2.859375 -5.734375 L 3.9375 -2.765625 L 0 0 L -5.0625 -16.375 L -0.28125 -19.75 L 13.484375 -9.5 Z M 4.34375 -11.1875 L 2.234375 -12.953125 C 2.015625 -13.148438 1.691406 -13.425781 1.265625 -13.78125 C 0.847656 -14.132812 0.414062 -14.503906 -0.03125 -14.890625 C -0.476562 -15.285156 -0.832031 -15.617188 -1.09375 -15.890625 C -0.945312 -15.535156 -0.765625 -15.101562 -0.546875 -14.59375 C -0.335938 -14.082031 -0.128906 -13.566406 0.078125 -13.046875 C 0.285156 -12.535156 0.445312 -12.109375 0.5625 -11.765625 L 1.53125 -9.1875 Z M 4.34375 -11.1875 "/></g></g></g><g fill="#FFFFFF" fill-opacity="1"><g transform="translate(107.071896, 61.626519)"><g><path d="M 8.265625 -10.40625 C 8.703125 -9.644531 8.921875 -8.8125 8.921875 -7.90625 C 8.929688 -7.007812 8.648438 -6.117188 8.078125 -5.234375 C 7.515625 -4.347656 6.59375 -3.535156 5.3125 -2.796875 C 4.675781 -2.429688 4.097656 -2.132812 3.578125 -1.90625 C 3.054688 -1.6875 2.550781 -1.523438 2.0625 -1.421875 C 1.570312 -1.316406 1.046875 -1.238281 0.484375 -1.1875 L -1.46875 -4.578125 C -0.5 -4.640625 0.429688 -4.789062 1.328125 -5.03125 C 2.234375 -5.269531 3 -5.570312 3.625 -5.9375 C 4.007812 -6.15625 4.296875 -6.375 4.484375 -6.59375 C 4.671875 -6.820312 4.773438 -7.046875 4.796875 -7.265625 C 4.816406 -7.492188 4.769531 -7.707031 4.65625 -7.90625 C 4.519531 -8.15625 4.316406 -8.316406 4.046875 -8.390625 C 3.773438 -8.460938 3.398438 -8.484375 2.921875 -8.453125 C 2.453125 -8.421875 1.828125 -8.375 1.046875 -8.3125 C 0.398438 -8.257812 -0.207031 -8.238281 -0.78125 -8.25 C -1.351562 -8.269531 -1.878906 -8.359375 -2.359375 -8.515625 C -2.847656 -8.679688 -3.300781 -8.9375 -3.71875 -9.28125 C -4.132812 -9.632812 -4.515625 -10.113281 -4.859375 -10.71875 C -5.378906 -11.613281 -5.59375 -12.5 -5.5 -13.375 C -5.40625 -14.25 -5.046875 -15.066406 -4.421875 -15.828125 C -3.796875 -16.597656 -2.957031 -17.28125 -1.90625 -17.875 C -1 -18.40625 -0.117188 -18.773438 0.734375 -18.984375 C 1.597656 -19.203125 2.390625 -19.34375 3.109375 -19.40625 L 3.640625 -15.8125 C 2.878906 -15.75 2.160156 -15.628906 1.484375 -15.453125 C 0.804688 -15.273438 0.21875 -15.046875 -0.28125 -14.765625 C -0.601562 -14.578125 -0.84375 -14.382812 -1 -14.1875 C -1.164062 -13.988281 -1.257812 -13.789062 -1.28125 -13.59375 C -1.300781 -13.40625 -1.265625 -13.222656 -1.171875 -13.046875 C -1.046875 -12.828125 -0.847656 -12.675781 -0.578125 -12.59375 C -0.316406 -12.519531 0.0664062 -12.5 0.578125 -12.53125 C 1.097656 -12.5625 1.800781 -12.617188 2.6875 -12.703125 C 3.550781 -12.785156 4.320312 -12.785156 5 -12.703125 C 5.6875 -12.628906 6.296875 -12.410156 6.828125 -12.046875 C 7.367188 -11.691406 7.847656 -11.144531 8.265625 -10.40625 Z M 8.265625 -10.40625 "/></g></g></g><g fill="#FFFFFF" fill-opacity="1"><g transform="translate(118.000353, 55.437807)"><g><path d="M 1.578125 -0.765625 L -5.546875 -15.359375 L -1.59375 -17.296875 L 5.53125 -2.703125 Z M 1.578125 -0.765625 "/></g></g></g><g fill="#FFFFFF" fill-opacity="1"><g transform="translate(124.511995, 52.100209)"><g><path d="M 3.515625 -15.28125 C 3.035156 -15.082031 2.648438 -14.804688 2.359375 -14.453125 C 2.066406 -14.097656 1.863281 -13.675781 1.75 -13.1875 C 1.632812 -12.695312 1.613281 -12.144531 1.6875 -11.53125 C 1.769531 -10.925781 1.957031 -10.273438 2.25 -9.578125 C 2.625 -8.628906 3.0625 -7.878906 3.5625 -7.328125 C 4.0625 -6.785156 4.625 -6.445312 5.25 -6.3125 C 5.882812 -6.175781 6.566406 -6.253906 7.296875 -6.546875 C 7.972656 -6.828125 8.582031 -7.1875 9.125 -7.625 C 9.675781 -8.070312 10.210938 -8.550781 10.734375 -9.0625 L 12.125 -5.609375 C 11.570312 -5.046875 10.972656 -4.5625 10.328125 -4.15625 C 9.691406 -3.75 8.976562 -3.382812 8.1875 -3.0625 C 6.5625 -2.40625 5.09375 -2.1875 3.78125 -2.40625 C 2.476562 -2.632812 1.351562 -3.226562 0.40625 -4.1875 C -0.539062 -5.15625 -1.320312 -6.398438 -1.9375 -7.921875 C -2.394531 -9.054688 -2.65625 -10.160156 -2.71875 -11.234375 C -2.78125 -12.316406 -2.640625 -13.328125 -2.296875 -14.265625 C -1.960938 -15.210938 -1.421875 -16.0625 -0.671875 -16.8125 C 0.078125 -17.5625 1.039062 -18.175781 2.21875 -18.65625 C 2.945312 -18.945312 3.75 -19.164062 4.625 -19.3125 C 5.5 -19.46875 6.394531 -19.515625 7.3125 -19.453125 L 7.34375 -15.75 C 6.695312 -15.789062 6.054688 -15.785156 5.421875 -15.734375 C 4.785156 -15.679688 4.148438 -15.53125 3.515625 -15.28125 Z M 3.515625 -15.28125 "/></g></g></g><g fill="#FFFFFF" fill-opacity="1"><g transform="translate(137.402034, 46.815594)"><g><path d="M 11.25 -3.296875 L 9.609375 -5.984375 L 4.546875 -4.5 L 4.625 -1.34375 L 0 0 L 0.5 -17.125 L 6.109375 -18.765625 L 15.84375 -4.625 Z M 7.734375 -9.1875 L 6.3125 -11.53125 C 6.15625 -11.789062 5.929688 -12.15625 5.640625 -12.625 C 5.359375 -13.101562 5.070312 -13.597656 4.78125 -14.109375 C 4.488281 -14.617188 4.257812 -15.046875 4.09375 -15.390625 C 4.125 -15.003906 4.160156 -14.535156 4.203125 -13.984375 C 4.242188 -13.441406 4.273438 -12.894531 4.296875 -12.34375 C 4.316406 -11.789062 4.332031 -11.328125 4.34375 -10.953125 L 4.421875 -8.21875 Z M 7.734375 -9.1875 "/></g></g></g><g fill="#FFFFFF" fill-opacity="1"><g transform="translate(152.714123, 42.511149)"><g/></g></g><g fill="#FFFFFF" fill-opacity="1"><g transform="translate(157.859241, 41.17518)"><g><path d="M 14.171875 -10.5625 C 14.441406 -8.695312 14.316406 -7.097656 13.796875 -5.765625 C 13.273438 -4.429688 12.425781 -3.363281 11.25 -2.5625 C 10.082031 -1.757812 8.640625 -1.238281 6.921875 -1 L 1.734375 -0.25 L -0.578125 -16.3125 L 4.984375 -17.109375 C 6.703125 -17.359375 8.207031 -17.273438 9.5 -16.859375 C 10.789062 -16.441406 11.832031 -15.703125 12.625 -14.640625 C 13.414062 -13.585938 13.929688 -12.226562 14.171875 -10.5625 Z M 9.6875 -9.78125 C 9.550781 -10.757812 9.300781 -11.546875 8.9375 -12.140625 C 8.582031 -12.742188 8.117188 -13.164062 7.546875 -13.40625 C 6.984375 -13.65625 6.3125 -13.726562 5.53125 -13.625 L 4.265625 -13.4375 L 5.5625 -4.4375 L 6.515625 -4.578125 C 7.835938 -4.765625 8.753906 -5.285156 9.265625 -6.140625 C 9.773438 -6.992188 9.914062 -8.207031 9.6875 -9.78125 Z M 9.6875 -9.78125 "/></g></g></g><g fill="#FFFFFF" fill-opacity="1"><g transform="translate(173.615491, 38.970769)"><g><path d="M 11.375 -0.578125 L 1.75 -0.09375 L 0.921875 -16.3125 L 10.546875 -16.796875 L 10.734375 -13.265625 L 5.484375 -13 L 5.609375 -10.453125 L 10.46875 -10.703125 L 10.640625 -7.1875 L 5.78125 -6.9375 L 5.9375 -3.890625 L 11.1875 -4.15625 Z M 11.375 -0.578125 "/></g></g></g><g fill="#FFFFFF" fill-opacity="1"><g transform="translate(185.588751, 38.440693)"><g/></g></g><g fill="#FFFFFF" fill-opacity="1"><g transform="translate(190.933874, 38.299676)"><g><path d="M 8.265625 -15.671875 C 9.722656 -15.554688 10.925781 -15.28125 11.875 -14.84375 C 12.820312 -14.414062 13.515625 -13.828125 13.953125 -13.078125 C 14.398438 -12.335938 14.582031 -11.441406 14.5 -10.390625 C 14.445312 -9.734375 14.289062 -9.140625 14.03125 -8.609375 C 13.769531 -8.085938 13.414062 -7.628906 12.96875 -7.234375 C 12.53125 -6.847656 12.015625 -6.519531 11.421875 -6.25 L 15.609375 1.15625 L 10.65625 0.796875 L 7.671875 -5.359375 L 6.5625 -5.4375 L 6.125 0.453125 L 1.75 0.125 L 2.953125 -16.0625 Z M 7.9375 -12.359375 L 7.078125 -12.421875 L 6.8125 -8.71875 L 7.625 -8.65625 C 8.300781 -8.601562 8.863281 -8.707031 9.3125 -8.96875 C 9.757812 -9.238281 10.007812 -9.753906 10.0625 -10.515625 C 10.101562 -11.035156 9.957031 -11.457031 9.625 -11.78125 C 9.289062 -12.101562 8.726562 -12.296875 7.9375 -12.359375 Z M 7.9375 -12.359375 "/></g></g></g><g fill="#FFFFFF" fill-opacity="1"><g transform="translate(205.537304, 39.412667)"><g><path d="M 11.234375 1.828125 L 1.734375 0.28125 L 4.34375 -15.734375 L 13.84375 -14.1875 L 13.28125 -10.703125 L 8.109375 -11.546875 L 7.703125 -9.046875 L 12.5 -8.265625 L 11.921875 -4.78125 L 7.125 -5.5625 L 6.640625 -2.546875 L 11.8125 -1.703125 Z M 11.234375 1.828125 "/></g></g></g><g fill="#FFFFFF" fill-opacity="1"><g transform="translate(217.102474, 41.144668)"><g><path d="M 15.140625 3.96875 L 10.890625 2.84375 L 12.5625 -3.546875 L 7.625 -4.828125 L 5.953125 1.5625 L 1.6875 0.4375 L 5.796875 -15.265625 L 10.0625 -14.140625 L 8.53125 -8.328125 L 13.46875 -7.046875 L 15 -12.859375 L 19.25 -11.734375 Z M 15.140625 3.96875 "/></g></g></g><g fill="#FFFFFF" fill-opacity="1"><g transform="translate(233.094726, 45.302758)"><g><path d="M 10.953125 4.15625 L 11.28125 1.03125 L 6.359375 -0.84375 L 4.5 1.703125 L 0 0 L 10.734375 -13.359375 L 16.203125 -11.28125 L 15.421875 5.859375 Z M 11.703125 -2.65625 L 11.984375 -5.390625 C 12.023438 -5.679688 12.078125 -6.101562 12.140625 -6.65625 C 12.203125 -7.21875 12.269531 -7.789062 12.34375 -8.375 C 12.414062 -8.957031 12.484375 -9.4375 12.546875 -9.8125 C 12.347656 -9.488281 12.097656 -9.09375 11.796875 -8.625 C 11.492188 -8.15625 11.179688 -7.691406 10.859375 -7.234375 C 10.546875 -6.785156 10.285156 -6.410156 10.078125 -6.109375 L 8.484375 -3.875 Z M 11.703125 -2.65625 "/></g></g></g><g fill="#FFFFFF" fill-opacity="1"><g transform="translate(247.746979, 50.848606)"><g><path d="M 8.8125 -13.75 L 13.890625 -11.21875 C 15.984375 -10.164062 17.320312 -9.101562 17.90625 -8.03125 C 18.488281 -6.96875 18.488281 -5.851562 17.90625 -4.6875 C 17.59375 -4.050781 17.210938 -3.566406 16.765625 -3.234375 C 16.316406 -2.910156 15.847656 -2.703125 15.359375 -2.609375 C 14.878906 -2.523438 14.4375 -2.523438 14.03125 -2.609375 L 13.984375 -2.515625 C 14.335938 -2.222656 14.65625 -1.863281 14.9375 -1.4375 C 15.21875 -1.019531 15.375 -0.519531 15.40625 0.0625 C 15.4375 0.65625 15.257812 1.335938 14.875 2.109375 C 14.4375 2.984375 13.832031 3.628906 13.0625 4.046875 C 12.300781 4.460938 11.421875 4.632812 10.421875 4.5625 C 9.429688 4.488281 8.363281 4.164062 7.21875 3.59375 L 1.5625 0.78125 Z M 9.96875 -6.21875 L 11.140625 -5.625 C 11.785156 -5.300781 12.304688 -5.207031 12.703125 -5.34375 C 13.109375 -5.476562 13.40625 -5.734375 13.59375 -6.109375 C 13.789062 -6.503906 13.789062 -6.878906 13.59375 -7.234375 C 13.394531 -7.597656 12.984375 -7.9375 12.359375 -8.25 L 11.265625 -8.8125 Z M 8.53125 -3.34375 L 7.015625 -0.296875 L 8.390625 0.40625 C 9.078125 0.738281 9.625 0.820312 10.03125 0.65625 C 10.445312 0.5 10.765625 0.203125 10.984375 -0.234375 C 11.117188 -0.492188 11.179688 -0.765625 11.171875 -1.046875 C 11.171875 -1.328125 11.066406 -1.609375 10.859375 -1.890625 C 10.660156 -2.171875 10.316406 -2.4375 9.828125 -2.6875 Z M 8.53125 -3.34375 "/></g></g></g><g fill="#FFFFFF" fill-opacity="1"><g transform="translate(260.846935, 57.513273)"><g><path d="M 1.5 0.890625 L 9.796875 -13.0625 L 13.59375 -10.8125 L 5.296875 3.140625 Z M 1.5 0.890625 "/></g></g></g><g fill="#FFFFFF" fill-opacity="1"><g transform="translate(267.224911, 61.177502)"><g><path d="M 1.4375 0.984375 L 10.640625 -12.390625 L 14.265625 -9.890625 L 7.078125 0.5625 L 12.21875 4.09375 L 10.203125 7.015625 Z M 1.4375 0.984375 "/></g></g></g><g fill="#FFFFFF" fill-opacity="1"><g transform="translate(277.620804, 68.414531)"><g><path d="M 1.375 1.078125 L 11.453125 -11.65625 L 14.90625 -8.921875 L 4.828125 3.8125 Z M 1.375 1.078125 "/></g></g></g><g fill="#FFFFFF" fill-opacity="1"><g transform="translate(283.454575, 72.886503)"><g><path d="M 6.59375 5.984375 L 3.359375 3.046875 L 11.84375 -6.3125 L 8.90625 -8.984375 L 11.328125 -11.65625 L 20.4375 -3.390625 L 18.015625 -0.71875 L 15.078125 -3.375 Z M 6.59375 5.984375 "/></g></g></g><g fill="#FFFFFF" fill-opacity="1"><g transform="translate(292.896754, 81.296828)"><g><path d="M 7.90625 8.65625 L 9.609375 6 L 6.046875 2.125 L 3.25 3.546875 L 0 0 L 15.609375 -7.078125 L 19.546875 -2.765625 L 11.125 12.1875 Z M 11.65625 2.90625 L 13.125 0.59375 C 13.300781 0.34375 13.535156 -0.015625 13.828125 -0.484375 C 14.128906 -0.953125 14.445312 -1.425781 14.78125 -1.90625 C 15.113281 -2.394531 15.394531 -2.789062 15.625 -3.09375 C 15.289062 -2.894531 14.882812 -2.65625 14.40625 -2.375 C 13.9375 -2.101562 13.457031 -1.832031 12.96875 -1.5625 C 12.476562 -1.300781 12.070312 -1.082031 11.75 -0.90625 L 9.328125 0.34375 Z M 11.65625 2.90625 "/></g></g></g><g fill="#FFFFFF" fill-opacity="1"><g transform="translate(303.470829, 92.873842)"><g><path d="M 15.671875 -0.5 C 15.359375 -0.914062 14.992188 -1.21875 14.578125 -1.40625 C 14.171875 -1.601562 13.710938 -1.695312 13.203125 -1.6875 C 12.691406 -1.675781 12.15625 -1.550781 11.59375 -1.3125 C 11.03125 -1.082031 10.445312 -0.738281 9.84375 -0.28125 C 9.019531 0.320312 8.40625 0.9375 8 1.5625 C 7.601562 2.195312 7.421875 2.832031 7.453125 3.46875 C 7.484375 4.101562 7.734375 4.738281 8.203125 5.375 C 8.640625 5.957031 9.140625 6.457031 9.703125 6.875 C 10.265625 7.289062 10.863281 7.6875 11.5 8.0625 L 8.515625 10.28125 C 7.835938 9.894531 7.21875 9.441406 6.65625 8.921875 C 6.101562 8.410156 5.570312 7.816406 5.0625 7.140625 C 4.007812 5.722656 3.425781 4.351562 3.3125 3.03125 C 3.195312 1.71875 3.476562 0.476562 4.15625 -0.6875 C 4.84375 -1.851562 5.835938 -2.925781 7.140625 -3.90625 C 8.128906 -4.632812 9.140625 -5.164062 10.171875 -5.5 C 11.203125 -5.84375 12.210938 -5.972656 13.203125 -5.890625 C 14.203125 -5.804688 15.160156 -5.492188 16.078125 -4.953125 C 16.992188 -4.421875 17.832031 -3.644531 18.59375 -2.625 C 19.0625 -2 19.484375 -1.28125 19.859375 -0.46875 C 20.234375 0.332031 20.503906 1.179688 20.671875 2.078125 L 17.109375 3.078125 C 16.984375 2.441406 16.8125 1.820312 16.59375 1.21875 C 16.382812 0.613281 16.078125 0.0390625 15.671875 -0.5 Z M 15.671875 -0.5 "/></g></g></g><g fill="#FFFFFF" fill-opacity="1"><g transform="translate(311.854841, 104.27141)"><g><path d="M 0.9375 1.46875 L 14.609375 -7.296875 L 17 -3.578125 L 3.328125 5.1875 Z M 0.9375 1.46875 "/></g></g></g><g fill="#FFFFFF" fill-opacity="1"><g transform="translate(315.960882, 110.229071)"><g><path d="M 15.140625 11.140625 C 14.035156 11.722656 12.957031 12.125 11.90625 12.34375 C 10.863281 12.5625 9.863281 12.5625 8.90625 12.34375 C 7.957031 12.125 7.070312 11.671875 6.25 10.984375 C 5.4375 10.296875 4.707031 9.332031 4.0625 8.09375 C 3.414062 6.894531 3.035156 5.757812 2.921875 4.6875 C 2.804688 3.625 2.921875 2.632812 3.265625 1.71875 C 3.609375 0.8125 4.160156 -0.0195312 4.921875 -0.78125 C 5.691406 -1.539062 6.632812 -2.21875 7.75 -2.8125 C 9.238281 -3.601562 10.664062 -4.039062 12.03125 -4.125 C 13.394531 -4.21875 14.648438 -3.90625 15.796875 -3.1875 C 16.953125 -2.476562 17.957031 -1.328125 18.8125 0.265625 C 19.6875 1.898438 20.085938 3.390625 20.015625 4.734375 C 19.953125 6.078125 19.492188 7.28125 18.640625 8.34375 C 17.796875 9.414062 16.628906 10.347656 15.140625 11.140625 Z M 9.890625 1.28125 C 9.023438 1.738281 8.332031 2.226562 7.8125 2.75 C 7.300781 3.28125 6.988281 3.84375 6.875 4.4375 C 6.769531 5.039062 6.90625 5.6875 7.28125 6.375 C 7.65625 7.082031 8.117188 7.5625 8.671875 7.8125 C 9.234375 8.0625 9.875 8.113281 10.59375 7.96875 C 11.3125 7.832031 12.101562 7.535156 12.96875 7.078125 C 14.257812 6.390625 15.164062 5.628906 15.6875 4.796875 C 16.21875 3.960938 16.203125 3.015625 15.640625 1.953125 C 15.265625 1.253906 14.789062 0.78125 14.21875 0.53125 C 13.65625 0.289062 13.007812 0.238281 12.28125 0.375 C 11.550781 0.519531 10.753906 0.820312 9.890625 1.28125 Z M 9.890625 1.28125 "/></g></g></g><g fill="#FFFFFF" fill-opacity="1"><g transform="translate(324.075685, 125.335711)"><g><path d="M 6.25 16.03125 L 4.15625 10.671875 L 12.671875 1 L 12.625 0.890625 C 12.300781 1.066406 11.921875 1.253906 11.484375 1.453125 C 11.054688 1.660156 10.601562 1.863281 10.125 2.0625 C 9.65625 2.269531 9.234375 2.445312 8.859375 2.59375 L 2.046875 5.25 L 0.640625 1.625 L 15.765625 -4.265625 L 17.84375 1.078125 L 9.46875 10.6875 L 9.5 10.734375 C 9.820312 10.585938 10.195312 10.421875 10.625 10.234375 C 11.050781 10.046875 11.488281 9.851562 11.9375 9.65625 C 12.382812 9.457031 12.773438 9.289062 13.109375 9.15625 L 19.953125 6.5 L 21.375 10.140625 Z M 6.25 16.03125 "/></g></g></g><g fill="#FFFFFF" fill-opacity="1"><g transform="translate(330.505409, 142.457988)"><g/></g></g><g fill="#FFFFFF" fill-opacity="1"><g transform="translate(332.211931, 147.536233)"><g><path d="M 11.65625 5.0625 L 18.140625 6.421875 L 19.203125 11.046875 L 8.375 8.078125 L 2.1875 9.5 L 1.203125 5.203125 L 7.25 3.8125 L 15.8125 -3.65625 L 16.890625 0.984375 Z M 11.65625 5.0625 "/></g></g></g><g fill="#FFFFFF" fill-opacity="1"><g transform="translate(99.891458, 328.89314)"><g><path d="M 7.78125 4.34375 L 3.953125 2.203125 L 10.109375 -8.84375 L 6.640625 -10.765625 L 8.390625 -13.890625 L 19.140625 -7.90625 L 17.390625 -4.78125 L 13.9375 -6.703125 Z M 7.78125 4.34375 "/></g></g></g><g fill="#FFFFFF" fill-opacity="1"><g transform="translate(112.260518, 335.732816)"><g><path d="M 10.375 4.71875 L 1.59375 0.71875 L 8.3125 -14.0625 L 17.09375 -10.0625 L 15.640625 -6.84375 L 10.859375 -9.015625 L 9.796875 -6.703125 L 14.21875 -4.6875 L 12.765625 -1.484375 L 8.34375 -3.5 L 7.078125 -0.703125 L 11.859375 1.46875 Z M 10.375 4.71875 "/></g></g></g><g fill="#FFFFFF" fill-opacity="1"><g transform="translate(124.296258, 341.244349)"><g><path d="M 12.078125 -12.953125 C 13.460938 -12.460938 14.550781 -11.882812 15.34375 -11.21875 C 16.144531 -10.5625 16.660156 -9.8125 16.890625 -8.96875 C 17.117188 -8.132812 17.0625 -7.21875 16.71875 -6.21875 C 16.5 -5.601562 16.191406 -5.078125 15.796875 -4.640625 C 15.410156 -4.210938 14.953125 -3.863281 14.421875 -3.59375 C 13.890625 -3.320312 13.304688 -3.132812 12.671875 -3.03125 L 14.765625 5.21875 L 10.078125 3.5625 L 8.8125 -3.15625 L 7.765625 -3.515625 L 5.796875 2.046875 L 1.65625 0.578125 L 7.0625 -14.734375 Z M 10.890625 -9.84375 L 10.09375 -10.125 L 8.859375 -6.625 L 9.625 -6.359375 C 10.257812 -6.128906 10.828125 -6.082031 11.328125 -6.21875 C 11.835938 -6.363281 12.21875 -6.796875 12.46875 -7.515625 C 12.644531 -8.003906 12.613281 -8.445312 12.375 -8.84375 C 12.132812 -9.25 11.640625 -9.582031 10.890625 -9.84375 Z M 10.890625 -9.84375 "/></g></g></g><g fill="#FFFFFF" fill-opacity="1"><g transform="translate(139.631357, 346.641201)"><g><path d="M 11.390625 2.765625 L 11.3125 -0.375 L 6.203125 -1.625 L 4.671875 1.140625 L 0 0 L 9 -14.578125 L 14.6875 -13.1875 L 16.03125 3.90625 Z M 11.296875 -4.09375 L 11.234375 -6.828125 C 11.222656 -7.128906 11.210938 -7.554688 11.203125 -8.109375 C 11.203125 -8.660156 11.203125 -9.226562 11.203125 -9.8125 C 11.210938 -10.40625 11.222656 -10.894531 11.234375 -11.28125 C 11.078125 -10.9375 10.875 -10.515625 10.625 -10.015625 C 10.382812 -9.515625 10.140625 -9.019531 9.890625 -8.53125 C 9.640625 -8.039062 9.425781 -7.632812 9.25 -7.3125 L 7.9375 -4.90625 Z M 11.296875 -4.09375 "/></g></g></g><g fill="#FFFFFF" fill-opacity="1"><g transform="translate(156.506432, 350.655754)"><g><path d="M 9.59375 -15.03125 C 11.625 -14.75 13.082031 -14.085938 13.96875 -13.046875 C 14.851562 -12.015625 15.179688 -10.679688 14.953125 -9.046875 C 14.847656 -8.316406 14.644531 -7.628906 14.34375 -6.984375 C 14.050781 -6.335938 13.628906 -5.78125 13.078125 -5.3125 C 12.523438 -4.851562 11.835938 -4.53125 11.015625 -4.34375 C 10.191406 -4.15625 9.207031 -4.140625 8.0625 -4.296875 L 6.84375 -4.484375 L 6.078125 0.859375 L 1.734375 0.25 L 4.03125 -15.828125 Z M 8.984375 -11.53125 L 7.875 -11.703125 L 7.34375 -8 L 8.203125 -7.875 C 8.578125 -7.820312 8.929688 -7.835938 9.265625 -7.921875 C 9.609375 -8.003906 9.894531 -8.171875 10.125 -8.421875 C 10.363281 -8.679688 10.519531 -9.054688 10.59375 -9.546875 C 10.664062 -10.046875 10.570312 -10.476562 10.3125 -10.84375 C 10.0625 -11.21875 9.617188 -11.445312 8.984375 -11.53125 Z M 8.984375 -11.53125 "/></g></g></g><g fill="#FFFFFF" fill-opacity="1"><g transform="translate(171.339592, 352.635963)"><g><path d="M 1.75 0.125 L 2.90625 -16.0625 L 7.296875 -15.75 L 6.140625 0.4375 Z M 1.75 0.125 "/></g></g></g><g fill="#FFFFFF" fill-opacity="1"><g transform="translate(179.890871, 353.388575)"><g><path d="M 11.71875 -0.0625 L 10.890625 -3.109375 L 5.625 -3.078125 L 4.8125 -0.03125 L 0 0 L 5.203125 -16.328125 L 11.046875 -16.359375 L 16.5 -0.09375 Z M 9.96875 -6.6875 L 9.25 -9.34375 C 9.175781 -9.632812 9.066406 -10.046875 8.921875 -10.578125 C 8.773438 -11.117188 8.632812 -11.675781 8.5 -12.25 C 8.363281 -12.820312 8.253906 -13.296875 8.171875 -13.671875 C 8.109375 -13.296875 8.015625 -12.835938 7.890625 -12.296875 C 7.773438 -11.753906 7.65625 -11.210938 7.53125 -10.671875 C 7.40625 -10.140625 7.296875 -9.691406 7.203125 -9.328125 L 6.515625 -6.671875 Z M 9.96875 -6.6875 "/></g></g></g><g fill="#FFFFFF" fill-opacity="1"><g transform="translate(196.997324, 353.088582)"><g/></g></g><g fill="#FFFFFF" fill-opacity="1"><g transform="translate(203.383413, 352.679417)"><g><path d="M 6.03125 -0.8125 L 1.734375 -0.234375 L -0.421875 -16.328125 L 9.09375 -17.59375 L 9.5625 -14.09375 L 4.34375 -13.40625 L 4.75 -10.34375 L 9.5625 -10.984375 L 10.03125 -7.5 L 5.21875 -6.859375 Z M 6.03125 -0.8125 "/></g></g></g><g fill="#FFFFFF" fill-opacity="1"><g transform="translate(216.057577, 350.894654)"><g><path d="M 1.71875 -0.34375 L -1.453125 -16.265625 L 2.859375 -17.125 L 6.03125 -1.203125 Z M 1.71875 -0.34375 "/></g></g></g><g fill="#FFFFFF" fill-opacity="1"><g transform="translate(224.394034, 349.302998)"><g><path d="M 10.65625 -7.96875 C 10.882812 -7.125 10.882812 -6.257812 10.65625 -5.375 C 10.4375 -4.5 9.9375 -3.703125 9.15625 -2.984375 C 8.382812 -2.273438 7.285156 -1.726562 5.859375 -1.34375 C 5.140625 -1.144531 4.5 -1.007812 3.9375 -0.9375 C 3.382812 -0.863281 2.859375 -0.835938 2.359375 -0.859375 C 1.859375 -0.878906 1.328125 -0.9375 0.765625 -1.03125 L -0.25 -4.8125 C 0.707031 -4.601562 1.644531 -4.503906 2.5625 -4.515625 C 3.488281 -4.523438 4.304688 -4.625 5.015625 -4.8125 C 5.429688 -4.925781 5.757812 -5.066406 6 -5.234375 C 6.238281 -5.410156 6.398438 -5.601562 6.484375 -5.8125 C 6.566406 -6.03125 6.578125 -6.25 6.515625 -6.46875 C 6.441406 -6.738281 6.285156 -6.941406 6.046875 -7.078125 C 5.804688 -7.222656 5.453125 -7.34375 4.984375 -7.4375 C 4.523438 -7.53125 3.910156 -7.640625 3.140625 -7.765625 C 2.492188 -7.878906 1.894531 -8.015625 1.34375 -8.171875 C 0.800781 -8.335938 0.316406 -8.5625 -0.109375 -8.84375 C -0.546875 -9.125 -0.914062 -9.484375 -1.21875 -9.921875 C -1.53125 -10.367188 -1.78125 -10.925781 -1.96875 -11.59375 C -2.238281 -12.601562 -2.21875 -13.515625 -1.90625 -14.328125 C -1.59375 -15.140625 -1.035156 -15.835938 -0.234375 -16.421875 C 0.554688 -17.015625 1.535156 -17.46875 2.703125 -17.78125 C 3.722656 -18.0625 4.671875 -18.191406 5.546875 -18.171875 C 6.429688 -18.160156 7.238281 -18.097656 7.96875 -17.984375 L 7.546875 -14.359375 C 6.796875 -14.492188 6.070312 -14.5625 5.375 -14.5625 C 4.675781 -14.570312 4.046875 -14.503906 3.484375 -14.359375 C 3.128906 -14.265625 2.84375 -14.140625 2.625 -13.984375 C 2.414062 -13.828125 2.273438 -13.65625 2.203125 -13.46875 C 2.140625 -13.289062 2.132812 -13.109375 2.1875 -12.921875 C 2.25 -12.679688 2.398438 -12.488281 2.640625 -12.34375 C 2.878906 -12.207031 3.253906 -12.082031 3.765625 -11.96875 C 4.273438 -11.863281 4.960938 -11.742188 5.828125 -11.609375 C 6.679688 -11.453125 7.425781 -11.25 8.0625 -11 C 8.707031 -10.757812 9.242188 -10.394531 9.671875 -9.90625 C 10.109375 -9.425781 10.4375 -8.78125 10.65625 -7.96875 Z M 10.65625 -7.96875 "/></g></g></g><g fill="#FFFFFF" fill-opacity="1"><g transform="translate(237.584211, 345.643829)"><g><path d="M 1.65625 -0.5625 L -3.59375 -15.921875 L 0.578125 -17.34375 L 5.828125 -1.984375 Z M 1.65625 -0.5625 "/></g></g></g><g fill="#FFFFFF" fill-opacity="1"><g transform="translate(245.691967, 342.982646)"><g><path d="M 3.25 -15.34375 C 2.769531 -15.144531 2.382812 -14.863281 2.09375 -14.5 C 1.8125 -14.132812 1.613281 -13.703125 1.5 -13.203125 C 1.394531 -12.710938 1.390625 -12.164062 1.484375 -11.5625 C 1.578125 -10.957031 1.769531 -10.304688 2.0625 -9.609375 C 2.457031 -8.671875 2.910156 -7.929688 3.421875 -7.390625 C 3.941406 -6.859375 4.515625 -6.53125 5.140625 -6.40625 C 5.765625 -6.28125 6.441406 -6.375 7.171875 -6.6875 C 7.847656 -6.96875 8.457031 -7.332031 9 -7.78125 C 9.539062 -8.238281 10.0625 -8.726562 10.5625 -9.25 L 12.015625 -5.828125 C 11.484375 -5.253906 10.894531 -4.753906 10.25 -4.328125 C 9.613281 -3.910156 8.910156 -3.535156 8.140625 -3.203125 C 6.515625 -2.515625 5.046875 -2.273438 3.734375 -2.484375 C 2.429688 -2.691406 1.296875 -3.265625 0.328125 -4.203125 C -0.640625 -5.148438 -1.441406 -6.375 -2.078125 -7.875 C -2.554688 -9.007812 -2.835938 -10.113281 -2.921875 -11.1875 C -3.003906 -12.269531 -2.882812 -13.285156 -2.5625 -14.234375 C -2.238281 -15.179688 -1.707031 -16.035156 -0.96875 -16.796875 C -0.226562 -17.566406 0.722656 -18.195312 1.890625 -18.6875 C 2.609375 -19 3.40625 -19.238281 4.28125 -19.40625 C 5.15625 -19.570312 6.050781 -19.628906 6.96875 -19.578125 L 7.078125 -15.875 C 6.429688 -15.90625 5.785156 -15.890625 5.140625 -15.828125 C 4.503906 -15.773438 3.875 -15.613281 3.25 -15.34375 Z M 3.25 -15.34375 "/></g></g></g><g fill="#FFFFFF" fill-opacity="1"><g transform="translate(260.064199, 336.897083)"><g><path d="M 10.296875 -5.609375 L 8.125 -7.890625 L 3.5 -5.375 L 4.21875 -2.296875 L 0 0 L -3.140625 -16.84375 L 1.984375 -19.640625 L 14.484375 -7.890625 Z M 5.609375 -10.609375 L 3.703125 -12.609375 C 3.503906 -12.828125 3.21875 -13.132812 2.84375 -13.53125 C 2.46875 -13.9375 2.082031 -14.359375 1.6875 -14.796875 C 1.289062 -15.242188 0.972656 -15.617188 0.734375 -15.921875 C 0.835938 -15.546875 0.96875 -15.09375 1.125 -14.5625 C 1.28125 -14.03125 1.425781 -13.492188 1.5625 -12.953125 C 1.707031 -12.421875 1.820312 -11.976562 1.90625 -11.625 L 2.578125 -8.953125 Z M 5.609375 -10.609375 "/></g></g></g></svg>