<svg xmlns="http://www.w3.org/2000/svg" xmlns:xlink="http://www.w3.org/1999/xlink" width="3000" zoomAndPan="magnify" viewBox="0 0 2250 2250.000011" height="3000" preserveAspectRatio="xMidYMid meet" version="1.0"><defs><clipPath id="88dd2ebc7d"><path d="M 0.5 0 L 2249.5 0 L 2249.5 2249 L 0.5 2249 Z M 0.5 0 " clip-rule="nonzero"/></clipPath><clipPath id="4d3c99ef1b"><path d="M 250.296875 512.308594 L 2000.019531 512.308594 L 2000.019531 765.695312 L 250.296875 765.695312 Z M 250.296875 512.308594 " clip-rule="nonzero"/></clipPath><clipPath id="211f783e24"><path d="M 501.726562 1084.570312 L 1750.667969 1084.570312 L 1750.667969 1265.988281 L 501.726562 1265.988281 Z M 501.726562 1084.570312 " clip-rule="nonzero"/></clipPath><clipPath id="7f7d2f207e"><path d="M 707.542969 1622.851562 L 1492.445312 1622.851562 L 1492.445312 1736.800781 L 707.542969 1736.800781 Z M 707.542969 1622.851562 " clip-rule="nonzero"/></clipPath></defs><g clip-path="url(#88dd2ebc7d)"><path fill="#ffffff" d="M 0.5 0 L 2249.5 0 L 2249.5 2249 L 0.5 2249 Z M 0.5 0 " fill-opacity="1" fill-rule="nonzero"/><path fill="#ffffff" d="M 0.5 0 L 2249.5 0 L 2249.5 2249 L 0.5 2249 Z M 0.5 0 " fill-opacity="1" fill-rule="nonzero"/></g><path fill="#1e3050" d="M 257.492188 639.136719 C 257.492188 570.492188 313.140625 514.84375 381.785156 514.84375 L 1868.214844 514.84375 C 1936.859375 514.84375 1992.507812 570.492188 1992.507812 639.136719 C 1992.507812 707.78125 1936.859375 763.429688 1868.214844 763.429688 L 381.785156 763.429688 C 313.140625 763.429688 257.492188 707.78125 257.492188 639.136719 Z M 257.492188 639.136719 " fill-opacity="1" fill-rule="nonzero"/><g clip-path="url(#4d3c99ef1b)"><path stroke-linecap="butt" transform="matrix(5.073136, 0, 0, 5.073136, 254.957033, 512.307869)" fill="none" stroke-linejoin="miter" d="M 0.499722 25.00009 C 0.499722 11.469104 11.46896 0.499865 24.999947 0.499865 L 318.000128 0.499865 C 331.531115 0.499865 342.500354 11.469104 342.500354 25.00009 C 342.500354 38.531077 331.531115 49.500315 318.000128 49.500315 L 24.999947 49.500315 C 11.46896 49.500315 0.499722 38.531077 0.499722 25.00009 Z M 0.499722 25.00009 " stroke="#e8e8e8" stroke-width="1" stroke-opacity="1" stroke-miterlimit="4"/></g><path fill="#1e3050" d="M 506.84375 1175.121094 C 506.84375 1126.109375 546.574219 1086.378906 595.582031 1086.378906 L 1656.847656 1086.378906 C 1705.855469 1086.378906 1745.585938 1126.109375 1745.585938 1175.121094 C 1745.585938 1224.128906 1705.855469 1263.859375 1656.847656 1263.859375 L 595.582031 1263.859375 C 546.574219 1263.859375 506.84375 1224.128906 506.84375 1175.121094 Z M 506.84375 1175.121094 " fill-opacity="1" fill-rule="nonzero"/><g clip-path="url(#211f783e24)"><path stroke-linecap="butt" transform="matrix(3.622062, 0, 0, 3.622062, 505.031014, 1084.568566)" fill="none" stroke-linejoin="miter" d="M 0.500471 25.000271 C 0.500471 11.468829 11.469491 0.499809 24.999853 0.499809 L 318.000262 0.499809 C 331.530625 0.499809 342.499644 11.468829 342.499644 25.000271 C 342.499644 38.530633 331.530625 49.499653 318.000262 49.499653 L 24.999853 49.499653 C 11.469491 49.499653 0.500471 38.530633 0.500471 25.000271 Z M 0.500471 25.000271 " stroke="#e8e8e8" stroke-width="1" stroke-opacity="1" stroke-miterlimit="4"/></g><path fill="#1e3050" d="M 710.792969 1679.765625 C 710.792969 1648.960938 735.765625 1623.988281 766.570312 1623.988281 L 1433.628906 1623.988281 C 1464.433594 1623.988281 1489.40625 1648.960938 1489.40625 1679.765625 C 1489.40625 1710.570312 1464.433594 1735.542969 1433.628906 1735.542969 L 766.570312 1735.542969 C 735.765625 1735.542969 710.792969 1710.570312 710.792969 1679.765625 Z M 710.792969 1679.765625 " fill-opacity="1" fill-rule="nonzero"/><g clip-path="url(#7f7d2f207e)"><path stroke-linecap="butt" transform="matrix(2.276644, 0, 0, 2.276644, 709.654446, 1622.850285)" fill="#F6F7F9" stroke-linejoin="miter" d="M 0.500088 24.999662 C 0.500088 11.46892 11.469151 0.499857 24.999894 0.499857 L 318.000686 0.499857 C 331.531429 0.499857 342.500492 11.46892 342.500492 24.999662 C 342.500492 38.530405 331.531429 49.499468 318.000686 49.499468 L 24.999894 49.499468 C 11.469151 49.499468 0.500088 38.530405 0.500088 24.999662 Z M 0.500088 24.999662 " stroke="#e8e8e8" stroke-width="1" stroke-opacity="1" stroke-miterlimit="4"/></g></svg>